ply
format ascii 1.0
comment Demo 3DGS asset - generated by generate_demo_assets.ts
element vertex 8
property float x
property float y
property float z
property uchar red
property uchar green
property uchar blue
property float scale_0
property float scale_1
property float scale_2
property float rot_0
property float rot_1
property float rot_2
property float rot_3
property float opacity
end_header
-1.5 -1.5 -1 180 140 100 0.1 0.1 0.1 1 0 0 0 0.8
1.5 -1.5 -1 180 140 100 0.1 0.1 0.1 1 0 0 0 0.8
1.5 1.5 -1 180 140 100 0.1 0.1 0.1 1 0 0 0 0.8
-1.5 1.5 -1 180 140 100 0.1 0.1 0.1 1 0 0 0 0.8
-1.5 -1.5 2 140 160 140 0.1 0.1 0.1 1 0 0 0 0.8
1.5 -1.5 2 140 160 140 0.1 0.1 0.1 1 0 0 0 0.8
1.5 1.5 2 140 160 140 0.1 0.1 0.1 1 0 0 0 0.8
-1.5 1.5 2 140 160 140 0.1 0.1 0.1 1 0 0 0 0.8
